<svg height="512pt" viewBox="-73 0 512 512.00035" width="512pt" xmlns="http://www.w3.org/2000/svg"><path d="m83.222656 276.992188c0 22.984374-18.628906 41.613281-41.609375 41.613281-22.984375 0-41.613281-18.628907-41.613281-41.613281 0-22.980469 18.628906-41.609376 41.613281-41.609376 22.980469 0 41.609375 18.628907 41.609375 41.609376zm0 0" fill="#ffb39d"/><path d="m365.445312 276.992188c0 22.984374-18.632812 41.613281-41.613281 41.613281s-41.613281-18.628907-41.613281-41.613281c0-22.980469 18.632812-41.609376 41.613281-41.609376s41.613281 18.628907 41.613281 41.609376zm0 0" fill="#ffcbbe"/><path d="m295.796875 512h-226.148437c-26.359376 0-47.726563-21.367188-47.726563-47.730469v-27.183593c0-42.222657 34.226563-76.449219 76.449219-76.449219h168.703125c42.222656 0 76.449219 34.226562 76.449219 76.449219v27.183593c0 26.363281-21.367188 47.730469-47.726563 47.730469zm0 0" fill="#6b7d8e"/><path d="m267.074219 360.636719h-168.703125c-42.222656 0-76.449219 34.226562-76.449219 76.449219 0 0 52.351563 41.261718 67.402344 74.914062h186.796875c15.050781-33.652344 67.402344-74.914062 67.402344-74.914062 0-42.222657-34.226563-76.449219-76.449219-76.449219zm0 0" fill="#546370"/><path d="m129.914062 348.953125h105.617188v163.046875h-105.617188zm0 0" fill="#2eddda"/><path d="m80.21875 348.953125s-23.65625 7.183594-40.882812 24.785156c-6.363282 6.5-4.597657 17.320313 3.472656 21.519531l26.945312 14.015626-7.753906 9.71875c-5.585938 7.003906-3.847656 17.304687 3.730469 22.078124 17.765625 11.1875 46.449219 34.207032 57.015625 70.929688h51.667968zm0 0" fill="#8697a6"/><path d="m285.226562 348.953125s23.65625 7.183594 40.882813 24.785156c6.359375 6.5 4.597656 17.320313-3.472656 21.519531l-26.945313 14.015626 7.753906 9.71875c5.585938 7.003906 3.847657 17.304687-3.730468 22.078124-17.765625 11.1875-46.449219 34.207032-57.015625 70.929688h-51.667969zm0 0" fill="#8697a6"/><path d="m102.164062 344.839844s-15.460937 92.058594 57.433594 135.488281c.550782.359375 24.738282-20.074219 24.738282-20.074219s-51.800782-49.699218-38.546876-122.042968zm0 0" fill="#b0f0ef"/><path d="m271.785156 344.839844s15.460938 92.058594-57.429687 135.488281c-.554688.359375-24.742188-20.074219-24.742188-20.074219s51.800781-49.699218 38.546875-122.042968zm0 0" fill="#b0f0ef"/><path d="m211.242188 399.042969h-57.039063c-60.136719 0-108.886719-48.75-108.886719-108.882813v-80.628906c0-75.886719 61.519532-137.40625 137.40625-137.40625 75.886719 0 137.402344 61.519531 137.402344 137.40625v80.628906c0 60.132813-48.746094 108.882813-108.882812 108.882813zm0 0" fill="#ffddcf"/><path d="m109.570312 226.371094c-10.699218-90.972656 76.570313-139.398438 101.550782-151.308594-9.160156-1.921875-18.664063-2.9375-28.398438-2.9375-75.886718 0-137.402344 61.519531-137.402344 137.40625v80.628906c0 57.472656 44.542969 104.550782 100.984376 108.601563-46.648438-25.761719-26.703126-87.09375-36.734376-172.390625zm0 0" fill="#ffcbbe"/><path d="m125.222656 309.515625c0-9.351563-9.523437-16.933594-21.265625-16.933594-11.742187 0-21.265625 7.582031-21.265625 16.933594s9.523438 16.929687 21.265625 16.929687c11.742188 0 21.265625-7.578124 21.265625-16.929687zm0 0" fill="#ff83b4"/><path d="m282.75 309.515625c0-9.351563-9.519531-16.933594-21.261719-16.933594-11.742187 0-21.265625 7.582031-21.265625 16.933594s9.523438 16.929687 21.265625 16.929687c11.742188 0 21.261719-7.578124 21.261719-16.929687zm0 0" fill="#ff83b4"/><g fill="#454545"><path d="m246.394531 306.660156c-4.269531 0-7.726562-3.460937-7.726562-7.726562v-12.828125c0-4.265625 3.457031-7.726563 7.726562-7.726563 4.265625 0 7.726563 3.460938 7.726563 7.726563v12.828125c0 4.265625-3.460938 7.726562-7.726563 7.726562zm0 0"/><path d="m119.050781 306.660156c-4.269531 0-7.726562-3.460937-7.726562-7.726562v-12.828125c0-4.265625 3.457031-7.726563 7.726562-7.726563s7.726563 3.460938 7.726563 7.726563v12.828125c0 4.265625-3.460938 7.726562-7.726563 7.726562zm0 0"/><path d="m188 291.214844c-1.730469 2.539062-4.253906 2.84375-5.277344 2.84375-1.023437 0-3.589844-.277344-5.277344-2.84375-2.34375-3.570313-7.132812-4.558594-10.699218-2.21875-3.566406 2.34375-4.558594 7.132812-2.214844 10.699218 4.035156 6.148438 10.835938 9.816407 18.191406 9.816407 7.355469 0 14.15625-3.667969 18.191406-9.816407 2.34375-3.566406 1.351563-8.355468-2.214843-10.699218-1.308594-.855469-7.089844-3.082032-10.699219 2.21875zm0 0"/></g><path d="m140.253906 145.332031s-8.179687 73.421875-71.382812 105.886719c-13.257813 6.808594-29.410156-.6875-33.007813-15.148438-7.382812-29.679687-11.167969-81.269531 28.316407-126.679687-.746094-.75 76.074218 35.941406 76.074218 35.941406zm0 0" fill="#6b7d8e"/><path d="m38.878906 152.210938c10.300782 9.417968 25.082032 20.738281 43.816406 29.359374 14.820313 6.816407 27.035157 14.75 36.484376 21.964844 17.871093-29.46875 21.074218-58.203125 21.074218-58.203125s-76.820312-36.691406-76.074218-35.941406c-12.140626 13.960937-20.1875 28.503906-25.300782 42.820313zm0 0" fill="#546370"/><path d="m224.449219 145.332031s8.105469 72.746094 70.511719 105.433594c13.550781 7.097656 30.183593-.488281 33.539062-15.414063 6.808594-30.273437 9.375-82.679687-31.859375-128.890624zm0 0" fill="#6b7d8e"/><path d="m247.351562 206.464844c46.570313-7.6875 64.851563-40.117188 71.988282-65.988282-5.402344-11.4375-12.78125-22.902343-22.699219-34.015624l-72.191406 38.871093s3.417969 30.671875 22.902343 61.132813zm0 0" fill="#546370"/><path d="m295.523438 114.894531c12.328124-27.601562 4.976562-60.046875-18.03125-79.65625-20.179688-17.195312-50.867188-34.335937-93.503907-35.2031248-72.738281-1.4882812-130.230469 46.8671878-157.722656 99.5937498-6.597656 12.652344 2.414063 27.734375 16.683594 27.996094 16.472656.304688 36.558593 3.820312 50.789062 16.714844 25.269531 22.902344 156.203125 72.570312 201.785157-29.445313zm0 0" fill="#8697a6"/><path d="m229.773438 512h-85.597657v-46.429688c0-9.339843 7.574219-16.914062 16.917969-16.914062h51.761719c9.34375 0 16.917969 7.574219 16.917969 16.914062zm0 0" fill="#fcf5af"/></svg>